<svg width="178" height="58" viewBox="0 0 178 58" fill="none" xmlns="http://www.w3.org/2000/svg">
<path fill-rule="evenodd" clip-rule="evenodd" d="M27.6476 0L27.797 7.66372H28.4135L28.5162 14.0502H28.8712L28.9179 19.7746H29.1234V14.0502H29.2728L29.2354 7.66372H29.3382L29.1794 0H27.6476ZM31.3837 0.0466163L30.5618 7.71034L31.1783 7.75695L30.459 14.0968L30.8233 14.1527L30.1041 19.8772H30.3563L31.0755 14.2086H31.225L31.9909 7.86883H32.0936L32.9156 0.205112L31.3837 0.0466163ZM25.4432 0.205112L23.9114 0.410223L25.0883 8.02733L25.6487 7.92477L26.5734 14.2646L26.9284 14.218L27.6943 19.9425L27.9465 19.8958L27.1806 14.2273L27.33 14.1807L26.4614 7.84086L26.6108 7.79425L25.4432 0.205112ZM21.7538 0.923003L20.2687 1.33323L22.417 8.68928L22.9307 8.54011L24.668 14.7214L25.0229 14.6189L26.5081 20.1382L26.7602 20.0916L25.2284 14.5723L25.4339 14.5256L23.6966 8.34432L23.9021 8.2977L21.7538 0.923003ZM35.1199 0.615335L33.3265 8.07394L33.943 8.22312L32.3551 14.4044L32.7661 14.507L31.281 20.073L31.5332 20.1196L32.9623 14.5536L33.1117 14.6002L34.6996 8.36297L34.8023 8.40958L36.5957 0.950973L35.1199 0.615335ZM18.2231 2.04179L16.794 2.65713L19.867 9.70551L20.3247 9.5004L22.8373 15.3741L23.1922 15.2249L25.3965 20.5391L25.602 20.4366L23.3977 15.1689L23.6032 15.0664L21.0906 9.19273L21.2401 9.09018L18.2231 2.04179ZM38.7066 1.63157L35.9979 8.78251L36.6144 9.03424L34.2045 14.9638L34.6155 15.113L32.4112 20.4273L32.6634 20.5298L34.8117 15.2156L34.9611 15.2715L37.3149 9.29529L37.4176 9.34191L40.1264 2.13503L38.7066 1.63157ZM42.1812 3.06735L38.4918 9.86401L39.1083 10.1717L35.9886 15.7377L36.3435 15.9428L33.532 20.9494L33.7375 21.0519L36.549 16.0919L36.6984 16.1479L39.8181 10.526L39.8648 10.5726L43.4982 3.83186L42.1812 3.06735ZM14.7952 3.68269L13.5156 4.50313L17.4572 11.0481L17.8682 10.7963L21.1467 16.3157L21.4549 16.1665L24.3224 21.1265L24.5279 21.024L21.6604 16.064L21.8659 15.9148L18.5874 10.3954L18.7929 10.2929L14.7952 3.68269ZM45.413 5.00659L40.9109 11.2439L41.4714 11.6541L37.6325 16.7632L37.9874 17.015L34.5034 21.6113L34.7089 21.7139L38.1929 17.1641L38.2956 17.2201L42.1345 12.1109L46.6366 5.87365L45.413 5.00659ZM11.6755 5.72448L10.4426 6.6941L15.2529 12.7263L15.6078 12.4186L19.5495 17.4811L19.8577 17.2294L23.3417 21.7791L23.5471 21.6766L20.0165 17.1268L20.222 16.9777L16.2803 11.9151L16.4298 11.766L11.6755 5.72448ZM48.3272 7.30944L43.1059 12.8754L43.6197 13.3882L39.1643 17.9846L39.4725 18.2922L35.4281 22.3851L35.6336 22.5343L49.4574 8.32567L48.3272 7.30944ZM8.808 8.1765L7.73385 9.24867L13.2634 14.6095L13.5716 14.2553L18.1297 18.7491L18.3819 18.544L22.473 22.5809L22.6224 22.4318L18.522 18.3389L18.6715 18.1897L14.1133 13.6959L14.3188 13.5467L8.808 8.1765ZM6.29543 10.9362L5.37073 12.1669L11.5167 16.7632L11.8249 16.4089L16.8968 20.2874L17.1023 20.0357L21.6604 23.5133L21.8098 23.3082L17.2517 19.8306L17.4012 19.6255L12.2826 15.7377L12.4321 15.5326L6.29543 10.9362ZM4.14714 14.0035L3.42793 15.3368L10.0876 19.122L10.2931 18.7677L15.8693 21.9376L16.0188 21.63L21.0346 24.5388L21.1373 24.3337L16.1682 21.4249L16.271 21.2197L10.6948 18.0498L10.8442 17.7981L4.14714 14.0035ZM2.45653 17.3226L1.84006 18.7491L8.95744 21.6579L9.10689 21.2477L15.0474 23.6531L15.1968 23.4014L20.4742 25.6017L20.5769 25.3499L15.2529 23.1497L15.3556 22.9445L9.41512 20.4925L9.56457 20.2408L2.45653 17.3226ZM1.13019 20.8468L0.775253 22.3292L8.20087 24.2684L8.30362 23.8582L14.4963 25.5457L14.599 25.2381L20.1286 26.7205L20.2313 26.5154L14.6551 25.033L14.7018 24.7812L8.49976 23.0937L8.60251 22.7861L1.13019 20.8468ZM0.354935 24.4736L0.149446 26.0119L7.78055 26.9815L7.82725 26.6272L14.1787 27.4477L14.2254 27.14L19.9044 27.9045L19.9511 27.6528L14.2161 26.9349L14.2628 26.6272L7.91132 25.8068L7.96736 25.4525L0.354935 24.4736ZM0 28.2122V29.7412H7.67781V29.3869H14.076V29.0793H19.8577V28.8741H14.076V28.5665H7.67781V28.2122H0ZM19.9137 30.0489L14.2348 30.8134L14.1881 30.5057L7.8366 31.3262L7.78989 30.9719L0.158787 31.9415L0.364276 33.4705L7.99538 32.5009L7.93934 32.1466L14.2908 31.3262L14.2441 31.0185L19.9791 30.3006L19.9137 30.0489ZM20.1192 31.2236L14.5897 32.706L14.487 32.4543L8.29428 34.0858L8.19153 33.6756L0.765913 35.6708L1.12085 37.1532L8.59317 35.158L8.49976 34.8503L14.6924 33.2188L14.6457 32.9671L20.222 31.4847L20.1192 31.2236ZM89.5931 27.802L90.1068 27.8486L90.6673 27.9045L91.181 28.0537L91.6387 28.2588L92.0963 28.4639L92.554 28.7716L92.965 29.0793L93.3199 29.4335L93.6282 29.8438L93.9364 30.254L94.1886 30.7108L94.3941 31.1677L94.5996 31.6804L94.7023 32.2398L94.7583 32.7992L94.8051 33.3586L94.7583 33.918L94.7117 34.4961L94.6089 35.0555L94.4034 35.5682L94.1979 36.0251L93.9457 36.4819L93.6375 36.9388L93.3293 37.349L92.9743 37.7033L92.5634 38.0109L92.1057 38.2627L91.648 38.5144L91.1903 38.6636L90.6766 38.8127L90.1162 38.8594L89.6025 38.906L88.986 38.8594L88.4723 38.8127L87.9118 38.6636L87.4542 38.5144L86.9404 38.2627L86.5295 38.0109L86.1185 37.7033L85.7635 37.349L85.4086 36.9388L85.1004 36.4819L84.8482 36.0251L84.6427 35.5682L84.4372 35.0555L84.3158 34.4961L84.213 33.9367V33.3773V32.8179L84.3158 32.2585L84.4185 31.7457L84.624 31.2329L84.8295 30.7668L85.0817 30.3099L85.3899 29.8531L85.6982 29.4988L86.0531 29.0886L86.4641 28.7809L86.9218 28.5292L87.3794 28.2775L87.8932 28.0723L88.4069 27.9232L88.9673 27.8672L89.5931 27.802ZM119.594 27.802L120.155 27.8486L120.715 27.9045L121.229 28.0537L121.687 28.2588L122.144 28.4639L122.602 28.7716L122.957 29.0793L123.368 29.4335L123.676 29.8438L123.984 30.254L124.237 30.7108L124.442 31.1677L124.592 31.6804L124.741 32.2398L124.788 32.7992L124.834 33.3586L124.788 33.918L124.741 34.4774L124.592 35.0368L124.442 35.5496L124.237 36.0064L123.984 36.4633L123.676 36.9201L123.368 37.3303L122.957 37.6846L122.602 37.9923L122.144 38.244L121.687 38.4957L121.229 38.6449L120.715 38.7941L120.155 38.8407L119.594 38.8873L119.034 38.8407L118.474 38.7941L117.96 38.6449L117.446 38.4957L116.989 38.244L116.578 37.9923L116.167 37.6846L115.756 37.3303L115.447 36.9201L115.139 36.4633L114.887 36.0064L114.681 35.5496L114.476 35.0368L114.373 34.4774L114.27 33.918V33.3586V32.7992L114.373 32.2398L114.476 31.7271L114.625 31.2143L114.878 30.7574L115.083 30.3006L115.391 29.8438L115.746 29.4895L116.101 29.0793L116.512 28.7716L116.97 28.5199L117.428 28.2681L117.941 28.063L118.455 27.9138L119.015 27.8579L119.594 27.802ZM20.4742 32.3983L15.1968 34.5986L15.0474 34.291L9.10689 36.743L8.95744 36.3327L1.84006 39.2416L2.45653 40.6681L9.57391 37.7592L9.42446 37.4515L15.365 34.9995L15.2622 34.7944L20.5862 32.5941L20.4742 32.3983ZM103.52 19.5695V25.0889H99.9329V28.1003H103.52V41.5911H106.845V28.1096H110.375V25.0982H106.845V19.5788H103.52V19.5695ZM131.83 17.015V41.5911H135.212V17.015H131.83ZM171.144 19.5695V25.0889H167.557V28.1003H171.144V41.5911H174.469V28.1096H178V25.0982H174.469V19.5788H171.144V19.5695ZM69.5766 16.5022L68.9602 16.5488L68.3437 16.6513L67.7272 16.7539L66.5503 17.0616L65.4202 17.4718L64.29 17.9846L63.2625 18.6465L62.2911 19.3644L61.4225 20.1849L60.6005 21.0519L59.8346 22.0215L59.2181 23.0937L58.6577 24.2218L58.4522 24.7812L58.2467 25.3966L58.0412 26.0119L57.9385 26.6272L57.7891 27.2892L57.733 27.9045L57.6863 28.5665L57.6396 29.2844L57.6863 29.9463L57.733 30.6642L57.7891 31.3262L57.9385 31.9881L58.0879 32.6034L58.2374 33.2654L58.4429 33.8807L58.6951 34.4401L58.9473 34.9995L59.2555 35.5589L59.5637 36.1183L59.872 36.6311L60.6379 37.6007L61.4598 38.4678L62.3845 39.2882L63.3559 39.9502L64.3834 40.5655L65.4575 41.0783L66.5877 41.4885L67.7646 41.7962L68.9602 41.9547L70.1931 42.0013H70.9123L71.6222 41.9547L72.3414 41.9081L73.0046 41.7589L73.6677 41.6563L74.2842 41.4512L74.9007 41.2461L75.5171 40.9944L76.0776 40.7426L76.638 40.435L77.1517 40.1273L77.7121 39.773L78.1698 39.3628L78.6835 38.9526L79.1412 38.5424L79.5989 38.0296L77.3478 35.8293L76.6286 36.4912L75.8627 37.1066L75.0408 37.6194L74.2188 38.0762L73.2941 38.4305L72.3227 38.6822L71.2486 38.8314L70.1744 38.878L69.2497 38.8314L68.3811 38.7288L67.5124 38.4771L66.6905 38.1694L65.9432 37.7592L65.1773 37.3024L64.5141 36.7896L63.851 36.1743L63.2906 35.4564L62.7768 34.7385L62.3191 33.918L61.9082 33.0976L61.5999 32.2305L61.3944 31.2609L61.245 30.2913L61.1983 29.2657L61.245 28.1935L61.3944 27.168L61.5999 26.1984L61.9082 25.2754L62.3191 24.4549L62.7768 23.6345L63.3372 22.87L63.8977 22.208L64.5608 21.5927L65.2801 21.0799L65.9993 20.6231L66.8212 20.2128L67.6432 19.9052L68.5118 19.7L69.3805 19.5975L70.3052 19.5509L71.3326 19.5975L72.304 19.7L73.2287 19.9518L74.0974 20.2594L74.9193 20.7163L75.7413 21.2757L76.5072 21.891L77.2731 22.6555L79.6269 20.4552L79.1132 19.9425L78.6555 19.4856L78.1418 19.0754L77.6281 18.6652L77.1143 18.3109L76.5539 18.0032L75.9935 17.6955L75.4331 17.4438L74.8726 17.2387L74.2562 17.0336L73.6397 16.8285L72.9765 16.7259L72.3134 16.6234L71.6502 16.5208L70.931 16.4742H69.5766V16.5022ZM88.9766 24.7346L88.2107 24.7812L87.3888 24.9304L86.6696 25.0796L85.9037 25.3872L85.2405 25.7415L84.5773 26.1517L83.9141 26.6086L83.3537 27.1214L82.7933 27.7367L82.3356 28.3987L81.9246 29.1165L81.5697 29.8811L81.2615 30.6456L81.056 31.5126L80.9532 32.4356L80.9065 33.3586L80.9532 34.2816L81.056 35.1487L81.2615 36.0158L81.5697 36.7803L81.9246 37.5448L82.3356 38.2627L82.7933 38.9246L83.307 39.5399L83.9235 40.0993L84.54 40.5562L85.2031 40.9664L85.9223 41.3207L86.6415 41.6284L87.4075 41.7775L88.1547 41.9547L88.9766 42.0013L89.9013 41.9547L90.77 41.8055L91.592 41.6563L92.3112 41.3487L93.0304 41.041L93.6469 40.6308L94.1606 40.1739L94.6743 39.7171L94.6276 41.6097H97.9528V25.1075H94.6276L94.6743 27.0468L94.1606 26.5899L93.6469 26.1331L93.0304 25.7229L92.3112 25.4152L91.592 25.1635L90.77 24.9584L89.9013 24.8092L88.9766 24.7346ZM119.025 24.7346L118.203 24.7812L117.437 24.9304L116.671 25.0796L115.952 25.3872L115.233 25.7415L114.569 26.1517L113.953 26.6086L113.392 27.1214L112.832 27.7367L112.374 28.3987L111.963 29.1165L111.608 29.8811L111.3 30.6456L111.095 31.5126L110.945 32.4356V33.3586V34.2816L111.095 35.1487L111.3 36.0158L111.552 36.7803L111.907 37.5448L112.318 38.2627L112.832 38.9246L113.346 39.5399L113.906 40.0993L114.569 40.5562L115.233 40.9664L115.896 41.3207L116.662 41.6284L117.428 41.7775L118.193 41.9267L119.015 41.9733L119.94 41.9267L120.809 41.7775L121.631 41.6284L122.35 41.3207L123.013 41.013L123.63 40.6028L124.19 40.146L124.648 39.6891V41.5817H127.973V25.0796H124.648V27.0188L124.19 26.562L123.63 26.1051L123.013 25.6949L122.359 25.3966L121.64 25.1448L120.818 24.9397L119.949 24.7906L119.025 24.7346ZM159.73 24.7346L159.114 24.7812L158.497 24.8372L157.937 24.9397L157.423 25.0889L156.909 25.294L156.396 25.4991L155.985 25.7508L155.574 26.0585L155.219 26.4128L154.911 26.7671L154.658 27.1773L154.406 27.5875L154.257 28.0444L154.107 28.5571L154.051 29.0699L154.005 29.5827L154.051 30.198L154.107 30.7108L154.257 31.1677L154.406 31.6245L154.556 31.9788L154.808 32.3331L155.06 32.6874L155.368 32.9391L155.676 33.1908L155.985 33.4425L156.704 33.7968L157.47 34.1045L158.292 34.3562L159.88 34.8131L160.599 35.0182L161.215 35.2699L161.776 35.5776L161.981 35.7827L162.187 35.9878L162.336 36.2395L162.486 36.4912L162.532 36.743V37.0973L162.486 37.5541L162.336 37.9643L162.131 38.272L161.776 38.5797L161.365 38.7288L160.851 38.878L160.291 38.9806H159.011L158.395 38.878L157.778 38.7754L157.162 38.5703L156.498 38.3186L155.882 38.0669L155.265 37.7126L154.649 37.3024L153.211 39.9129L153.874 40.3697L154.593 40.7799L155.312 41.1342L156.134 41.386L156.956 41.6377L157.778 41.7869L158.647 41.8894L159.515 41.936L160.281 41.8894L160.944 41.8428L161.608 41.7402L162.224 41.5911L162.784 41.4419L163.298 41.1902L163.756 40.9384L164.214 40.6308L164.568 40.2765L164.877 39.9222L165.185 39.4654L165.39 39.0085L165.596 38.5517L165.699 37.9923L165.801 37.4329V36.8176V36.2582L165.699 35.7454L165.596 35.2885L165.447 34.8317L165.26 34.4961L165.054 34.1418L164.802 33.8341L164.494 33.5264L164.186 33.2747L163.831 33.023L163.111 32.6687L162.345 32.3144L161.524 32.0627L159.936 31.6525L159.216 31.4474L158.553 31.1956L157.993 30.888L157.787 30.7388L157.582 30.5337L157.432 30.3286L157.33 30.1235L157.227 29.8717V29.5641L157.274 29.2098L157.376 28.8555L157.582 28.5012L157.834 28.2495L158.189 28.0444L158.647 27.8952L159.207 27.7926L159.87 27.746H160.384L160.898 27.7926L161.411 27.8952L161.869 28.0444L162.383 28.1935L162.897 28.4453L163.41 28.697L163.868 29.0047L165.456 26.5993L164.942 26.189L164.326 25.8348L163.606 25.5271L162.943 25.2754L162.177 25.0702L161.355 24.9211L160.589 24.8185L159.73 24.7346ZM21.0439 33.4705L16.0281 36.3327L15.8787 36.0251L10.3025 39.2416L10.097 38.8314L3.43727 42.6166L4.15648 43.9965L10.8629 40.1646L10.7134 39.9129L16.2897 36.743L16.1869 36.5379L21.156 33.6756L21.0439 33.4705ZM21.651 34.4401L17.0929 37.9643L16.8874 37.7126L11.8156 41.5911L11.5074 41.1808L5.36139 45.8331L6.28609 47.0638L12.4321 42.4115L12.2826 42.2064L17.4012 38.3186L17.2517 38.1135L21.8098 34.6359L21.651 34.4401ZM136.949 25.0889L143.553 41.6936L140.835 49.5625H144.057L153.22 25.0889H149.792L145.393 37.3024L140.582 25.0889H136.949ZM22.473 35.4097L18.3819 39.4467L18.1297 39.195L13.5716 43.6888L13.2634 43.3345L7.73385 48.6954L8.808 49.8235L14.3375 44.4626L14.132 44.2575L18.6901 39.7637L18.5407 39.6145L22.6411 35.5776L22.473 35.4097ZM35.6336 35.4097L35.4281 35.6149L39.4725 39.7078L39.1643 40.0154L43.6197 44.5652L43.1059 45.078L48.3272 50.6999L49.4574 49.6277L35.6336 35.4097ZM23.3417 36.1836L19.8577 40.7333L19.5495 40.5282L15.6078 45.5907L15.2529 45.2831L10.4426 51.3152L11.6755 52.2382L16.4391 46.2061L16.2897 46.0569L20.2313 40.9944L20.0258 40.8918L23.5565 36.3421L23.3417 36.1836ZM34.7089 36.2302L34.5034 36.3794L37.9874 40.9291L37.6325 41.1808L41.4714 46.3459L40.9109 46.7562L45.413 52.9934L46.646 52.0704L42.1439 45.8331V45.8798L38.2956 40.724L38.1929 40.8266L34.7089 36.2302ZM24.3131 36.8455L21.4456 41.8055L21.1373 41.6563L17.8588 47.1757L17.4479 46.924L13.5062 53.5155L14.7859 54.28L18.7835 47.6885L18.5781 47.5859L21.8565 42.0666L21.651 41.9547L24.5185 36.9947L24.3131 36.8455ZM33.7375 36.8921L33.532 37.0413L36.3435 42.0013L35.9886 42.2064L39.1083 47.7724L38.4918 48.1267L42.1812 54.8674L43.5076 54.1495L39.8742 47.4088H39.8275L36.7078 41.8428L36.5583 41.8987L33.7375 36.8921ZM25.3965 37.4049L23.1922 42.7192L22.8373 42.57L20.3247 48.4437L19.867 48.2386L16.794 55.2869L18.2231 55.9023L21.2401 48.8539L21.0906 48.8073L23.6032 42.8777L23.3977 42.8311L25.602 37.5168L25.3965 37.4049ZM32.6634 37.4609L32.4112 37.5634L34.6155 42.8777L34.2045 43.0269L36.6144 48.9564L35.9979 49.1616L38.7066 56.3684L40.1357 55.809L37.427 48.6581H37.3242L34.9705 42.7285L34.821 42.7844L32.6634 37.4609ZM26.5174 37.8151L25.0323 43.3345L24.6773 43.232L22.9307 49.4133L22.417 49.2641L20.2687 56.6761L21.7538 57.0863L23.9021 49.6743H23.6966L25.4339 43.493L25.2284 43.4464L26.7602 37.8804L26.5174 37.8151ZM31.5332 37.8618L31.281 37.9084L32.7661 43.4277L32.3551 43.5303L33.943 49.7676L33.3265 49.8701L35.1199 57.3847L36.605 57.0304L34.8117 49.5158L34.7089 49.5625L33.1211 43.3811H32.9716L31.5332 37.8618ZM27.6943 38.0669L26.9284 43.7354L26.5734 43.6888L25.6487 50.0286L25.0883 49.9727L23.9114 57.5338L25.4432 57.7856L26.6201 50.1685H26.4707L27.3393 43.782H27.1806L27.9465 38.0575H27.6943V38.0669ZM30.3563 38.0669L30.1041 38.1135L30.8233 43.7914L30.4684 43.838L31.1876 50.1778L30.5711 50.2803L31.3931 57.8974L32.9249 57.7483L32.103 50.1312H32.0002L31.2343 43.7447L31.0848 43.7914L30.3563 38.0669ZM28.9272 38.1694L28.8805 43.8939H28.5256L28.4228 50.2803H27.8064L27.6569 57.9441L29.1887 57.9907L29.3382 50.327H29.2354L29.2915 43.8846H29.142V38.1601H28.9272V38.1694Z" fill="white"/>
</svg>
